# xmcd CD database file
#
# Track frame offsets:
#	150
#	20475
#	33617
#	49780
#	63532
#	80655
#	101460
#	120705
#	133557
#	152955
#	172495
#	189405
#	208215
#	225625
#
# Disc length: 3240 seconds
#
# Revision: 1
# Processed by: cddbd v1.5.2PL0 Copyright (c) Steve Scherf et al.
# Submitted via: CDex 1.70beta3
#
DISCID=cb0ca60e
DTITLE=いろいろなアーティスト - 青春のスタンダードをあなたに　恋人よ〜木綿のハンカチーフ
DYEAR=1900
DGENRE=JPop
TTITLE0=酒と泪と男と女　- 河島英五 -
TTITLE1=青春時代　- 森田公一とトップギャラン -
TTITLE2=冬が来る前に　- 紙風船 -
TTITLE3=迷い道　- 渡辺真知子 -
TTITLE4=木綿のハンカチーフ　- 太田裕美 -
TTITLE5=いちご白書をもう一度　- バンバン -
TTITLE6=岬めぐり　- 山本コータローとウィークエンド -
TTITLE7=結婚しようよ　- 吉田拓郎 -
TTITLE8=いい日旅立ち　- 山口百恵 -
TTITLE9=きみの朝　- 岸田智史 -
TTITLE10=異邦人　- 久保田早紀 -
TTITLE11=恋人よ　- 五輪真弓 -
TTITLE12=もしもピアノが弾けたなら　- 西田敏行 -
TTITLE13=メモリーグラス　- 堀江淳 -
EXTD=
EXTT0=
EXTT1=
EXTT2=
EXTT3=
EXTT4=
EXTT5=
EXTT6=
EXTT7=
EXTT8=
EXTT9=
EXTT10=
EXTT11=
EXTT12=
EXTT13=
PLAYORDER=
